<svg preserveAspectRatio="none" overflow="visible" style="display: block;" width="40" height="40" viewBox="0 0 40 40" fill="none" xmlns="http://www.w3.org/2000/svg">
<g id="Background">
<rect width="40" height="40" rx="4" fill="#E8B078"/>
<path id="Symbol" d="M19.375 10.36C18.6068 10.36 17.9329 10.6074 17.3535 11.1022C16.7741 11.597 16.4193 12.2187 16.2891 12.9674C16.263 13.1367 16.1784 13.2718 16.0352 13.3727C15.8919 13.4736 15.7357 13.5078 15.5664 13.4752C15.3971 13.4427 15.2637 13.358 15.166 13.2213C15.0684 13.0846 15.0326 12.9316 15.0586 12.7623C15.2344 11.7207 15.7292 10.8515 16.543 10.1549C17.3568 9.45831 18.3008 9.11 19.375 9.11C20.3125 9.11 21.1589 9.38181 21.9141 9.92543C22.6693 10.469 23.1999 11.1705 23.5059 12.0299C23.5645 12.1927 23.5563 12.3506 23.4814 12.5036C23.4066 12.6565 23.2878 12.7623 23.125 12.8209C22.9622 12.8795 22.8027 12.8714 22.6465 12.7965C22.4902 12.7217 22.3828 12.6028 22.3242 12.4401C22.1094 11.8281 21.7318 11.3284 21.1914 10.9411C20.651 10.5537 20.0456 10.36 19.375 10.36V10.36M10.9082 16.5416V16.5514L10.7227 16.6393C10.5013 16.75 10.3255 16.9095 10.1953 17.1178C10.0651 17.3261 10 17.554 10 17.8014C10 18.166 10.127 18.4752 10.3809 18.7291C10.6348 18.983 10.944 19.11 11.3086 19.11H11.377C11.6699 17.6712 12.3877 16.4782 13.5303 15.5309C14.6729 14.5836 15.9961 14.11 17.5 14.11H23.4961C24.349 13.2767 25.3711 12.86 26.5625 12.86H26.6699C27.0866 12.86 27.4186 13.0244 27.666 13.3532C27.9134 13.6819 27.9818 14.0482 27.8711 14.4518L27.5977 15.4284C28.4245 16.0664 29.0527 16.8769 29.4824 17.86H30C30.3451 17.86 30.6396 17.9821 30.8838 18.2262C31.1279 18.4704 31.25 18.7649 31.25 19.11V22.86C31.25 23.2051 31.1279 23.4996 30.8838 23.7438C30.6396 23.9879 30.3451 24.11 30 24.11H28.75C28.0794 25.0019 27.2461 25.6627 26.25 26.0924V27.235C26.25 27.7558 26.0677 28.1985 25.7031 28.5631C25.3385 28.9277 24.8958 29.11 24.375 29.11H23.125C22.6042 29.11 22.1615 28.9277 21.7969 28.5631C21.4323 28.1985 21.25 27.7558 21.25 27.235V26.61H18.75V27.235C18.75 27.7558 18.5677 28.1985 18.2031 28.5631C17.8385 28.9277 17.3958 29.11 16.875 29.11H15.625C15.1042 29.11 14.6615 28.9277 14.2969 28.5631C13.9323 28.1985 13.75 27.7558 13.75 27.235V25.36C12.9753 24.7741 12.3649 24.0449 11.9189 23.1725C11.473 22.3001 11.25 21.3626 11.25 20.36C10.5534 20.347 9.96257 20.0914 9.47754 19.5934C8.99251 19.0954 8.75 18.498 8.75 17.8014C8.75 17.3196 8.87695 16.872 9.13086 16.4586C9.38477 16.0452 9.72982 15.7311 10.166 15.5162L10.3516 15.4186C10.5078 15.3405 10.6673 15.3291 10.8301 15.3844C10.9928 15.4398 11.1133 15.5455 11.1914 15.7018C11.2695 15.858 11.2809 16.0176 11.2256 16.1803C11.1702 16.3431 11.0645 16.4635 10.9082 16.5416V16.5416M25.9766 20.0866C25.7943 20.2689 25.5729 20.36 25.3125 20.36C25.0521 20.36 24.8307 20.2689 24.6484 20.0866C24.4661 19.9043 24.375 19.6829 24.375 19.4225C24.375 19.1621 24.4661 18.9407 24.6484 18.7584C24.8307 18.5761 25.0521 18.485 25.3125 18.485C25.5729 18.485 25.7943 18.5761 25.9766 18.7584C26.1589 18.9407 26.25 19.1621 26.25 19.4225C26.25 19.6829 26.1589 19.9043 25.9766 20.0866V20.0866M24.2383 15.1549H24.2285C24.1113 15.2916 23.9583 15.36 23.7695 15.36H23.75H17.5C16.1198 15.36 14.9414 15.8483 13.9648 16.8248C12.9883 17.8014 12.5 18.9798 12.5 20.36C12.5 21.2129 12.7002 22.0055 13.1006 22.7379C13.501 23.4704 14.043 24.0644 14.7266 24.5202C14.9089 24.6439 15 24.8164 15 25.0377V27.235C15 27.4043 15.0618 27.5508 15.1855 27.6745C15.3092 27.7982 15.4557 27.86 15.625 27.86H16.875C17.0443 27.86 17.1908 27.7982 17.3145 27.6745C17.4382 27.5508 17.5 27.4043 17.5 27.235V25.985C17.5 25.8157 17.5618 25.6692 17.6855 25.5455C17.8092 25.4218 17.9557 25.36 18.125 25.36H21.875C22.0443 25.36 22.1908 25.4218 22.3145 25.5455C22.4382 25.6692 22.5 25.8157 22.5 25.985V27.235C22.5 27.4043 22.5618 27.5508 22.6855 27.6745C22.8092 27.7982 22.9557 27.86 23.125 27.86H24.375C24.5443 27.86 24.6908 27.7982 24.8145 27.6745C24.9382 27.5508 25 27.4043 25 27.235V25.6627C25 25.5325 25.0391 25.4137 25.1172 25.3063C25.1953 25.1989 25.2962 25.1224 25.4199 25.0768C26.4551 24.7122 27.2852 24.0644 27.9102 23.1334C28.0339 22.9511 28.2096 22.86 28.4375 22.86H30V19.11H29.0625C28.9323 19.11 28.8118 19.0709 28.7012 18.9928C28.5905 18.9147 28.5124 18.8138 28.4668 18.6901C28.1022 17.6549 27.4544 16.8248 26.5234 16.1998C26.2695 16.0241 26.1849 15.7929 26.2695 15.5065L26.6699 14.11H26.5625C25.625 14.11 24.8503 14.4583 24.2383 15.1549V15.1549M24.2383 15.1549V15.1549V15.1549" fill="white"/>
</g>
</svg>
