<svg preserveAspectRatio="none" overflow="visible" style="display: block;" width="36" height="36" viewBox="0 0 36 36" fill="none" xmlns="http://www.w3.org/2000/svg">
<g id="Container">
<path id="Symbol" d="M25.3477 8.4375C26.4492 10.3477 27 12.4102 27 14.625C27 16.8398 26.4492 18.9023 25.3477 20.8125C24.2461 22.7227 22.7344 24.2344 20.8125 25.3477C18.8906 26.4492 16.8281 27 14.625 27C12.4219 27 10.3594 26.4492 8.4375 25.3477C6.51562 24.2344 5.00391 22.7227 3.90234 20.8125C2.80078 18.9023 2.25 16.8398 2.25 14.625C2.25 12.4102 2.80078 10.3477 3.90234 8.4375C5.00391 6.52734 6.51562 5.01562 8.4375 3.90234C10.3594 2.80078 12.4219 2.25 14.625 2.25C16.8281 2.25 18.8906 2.80078 20.8125 3.90234C22.7344 5.01562 24.2461 6.52734 25.3477 8.4375V8.4375M24.1348 25.7344L34.084 35.666C34.3066 35.8887 34.5703 36 34.875 36C35.1797 36 35.4434 35.8887 35.666 35.666C35.8887 35.4434 36 35.1797 36 34.875C36 34.5703 35.8887 34.3066 35.666 34.084L25.7344 24.1348C26.8477 22.834 27.7119 21.3721 28.3271 19.749C28.9424 18.126 29.25 16.418 29.25 14.625C29.25 12.6445 28.8633 10.749 28.0898 8.93848C27.3164 7.12793 26.2793 5.57227 24.9785 4.27148C23.6777 2.9707 22.1221 1.93359 20.3115 1.16016C18.501 0.386719 16.6055 0 14.625 0C12.6445 0 10.749 0.386719 8.93848 1.16016C7.12793 1.93359 5.57227 2.9707 4.27148 4.27148C2.9707 5.57227 1.93359 7.12793 1.16016 8.93848C0.386719 10.749 0 12.6445 0 14.625C0 16.6055 0.386719 18.501 1.16016 20.3115C1.93359 22.1221 2.9707 23.6777 4.27148 24.9785C5.57227 26.2793 7.12793 27.3164 8.93848 28.0898C10.749 28.8633 12.6445 29.25 14.625 29.25C16.418 29.25 18.126 28.9424 19.749 28.3271C21.3721 27.7119 22.834 26.8477 24.1348 25.7344V25.7344" fill="#009DDB"/>
</g>
</svg>
