<svg preserveAspectRatio="none" overflow="visible" style="display: block;" width="20" height="20" viewBox="0 0 20 20" fill="none" xmlns="http://www.w3.org/2000/svg">
<g id="Container">
<path id="Symbol" d="M7.24512 2.01988C7.15853 1.93329 7.05599 1.89 6.9375 1.89C6.81901 1.89 6.71647 1.93329 6.62988 2.01988C6.54329 2.10647 6.5 2.20901 6.5 2.3275V3.64H5.625C5.14193 3.64 4.72949 3.8109 4.3877 4.1527C4.0459 4.49449 3.875 4.90693 3.875 5.39V6.265V7.14V14.14C3.875 14.6231 4.0459 15.0355 4.3877 15.3773C4.72949 15.7191 5.14193 15.89 5.625 15.89H14.375C14.8581 15.89 15.2705 15.7191 15.6123 15.3773C15.9541 15.0355 16.125 14.6231 16.125 14.14V7.14V6.265V5.39C16.125 4.90693 15.9541 4.49449 15.6123 4.1527C15.2705 3.8109 14.8581 3.64 14.375 3.64H13.5V2.3275C13.5 2.20901 13.4567 2.10647 13.3701 2.01988C13.2835 1.93329 13.181 1.89 13.0625 1.89C12.944 1.89 12.8415 1.93329 12.7549 2.01988C12.6683 2.10647 12.625 2.20901 12.625 2.3275V3.64H7.375V2.3275C7.375 2.20901 7.33171 2.10647 7.24512 2.01988V2.01988M15.25 7.14V9.10875H12.4062V7.14H15.25V7.14M15.25 9.98375V12.1712H12.4062V9.98375H15.25V9.98375M15.25 13.0462V14.14C15.25 14.3815 15.1646 14.5878 14.9937 14.7587C14.8228 14.9296 14.6165 15.015 14.375 15.015H12.4062V13.0462H15.25V13.0462M11.5312 12.1712H8.46875V9.98375H11.5312V12.1712V12.1712M8.46875 13.0462H11.5312V15.015H8.46875V13.0462V13.0462M7.59375 12.1712H4.75V9.98375H7.59375V12.1712V12.1712M4.75 13.0462H7.59375V15.015H5.625C5.38346 15.015 5.17725 14.9296 5.00635 14.7587C4.83545 14.5878 4.75 14.3815 4.75 14.14V13.0462V13.0462M4.75 9.10875V7.14H7.59375V9.10875H4.75V9.10875M8.46875 9.10875V7.14H11.5312V9.10875H8.46875V9.10875M14.375 4.515C14.6165 4.515 14.8228 4.60045 14.9937 4.77135C15.1646 4.94225 15.25 5.14846 15.25 5.39V6.265H4.75V5.39C4.75 5.14846 4.83545 4.94225 5.00635 4.77135C5.17725 4.60045 5.38346 4.515 5.625 4.515H14.375V4.515" fill="#DCE0E8"/>
</g>
</svg>
